<svg height="200" viewBox="0 0 905.26 145.75" width="1207.01" xmlns="http://www.w3.org/2000/svg"
    xmlns:xlink="http://www.w3.org/1999/xlink">
    <symbol id="a" overflow="visible">
        <path d="m60.83-82.8h-42.43v82.8h5.4v-40.94h27.84v-4.6h-27.84v-32.66h37.03zm0 0" />
    </symbol>
    <symbol id="b" overflow="visible">
        <path
            d="m24.84-24.72c0-23.12 13.8-32.78 20-32.78 7.36 0 7.72 8.17 7.83 13.8h5.4c0-8.28-2.63-18.4-12.76-18.4-10.4 0-16.7 9.43-20.8 17.82l-2-17.25h-5.2l2.2 19.44v42.09h5.4zm0 0" />
    </symbol>
    <symbol id="c" overflow="visible">
        <path
            d="m34.5 1.27c10.23 0 23.34-7.02 23.34-31.74 0-24.84-13.22-31.62-23.34-31.62-11.05 0-23.23 8-23.23 31.7 0 24.9 13 31.8 23.23 31.8zm0-4.6c-14.83 0-17.83-15.2-17.83-27.14 0-11.84 3-27.03 17.83-27.03 14.95 0 17.94 15.2 17.94 27.03 0 11.84-3 27.14-17.94 27.14zm0 0" />
    </symbol>
    <symbol id="d" overflow="visible">
        <path
            d="m19.3-25.06c0-23.7 11.87-32.44 20.6-32.44 9.43 0 9.43 9.66 9.43 16.67v40.83h5.4v-43.36c0-9.2-3.1-18.73-14.14-18.73-9.7 0-19.4 9-21.7 18.1h-.2l-2.2-17.5h-5c2 10.4 2.4 20.7 2.4 31.1v30.39h5.4zm0 0" />
    </symbol>
    <symbol id="e" overflow="visible">
        <path
            d="m51.86-60.83h-22.3v-19.57h-5.4v19.57h-13.7v4.6h13.7v38.3c0 15.4 7 19.2 14.82 19.2 9.08 0 15.75-6.33 19.55-14.14l-5.17-1.27c-2.64 5.74-7.36 10.8-14.14 10.8-7.5 0-9.66-5.52-9.66-11.38v-41.5h22.3zm0 0" />
    </symbol>
    <symbol id="f" overflow="visible">
        <path
            d="m54.97-9.3c-5.75 3.44-12.3 5.97-19.2 5.97-9.32 0-18.18-4.84-19.2-26.23h41.63c0-25.17-12.1-32.53-22.34-32.53-17.93 0-24.7 16.6-24.7 32s6.53 31.4 24.36 31.4c7.83 0 14.72-2.4 21.74-5.5zm-38.4-24.86c-.37-10.68 6.76-23.34 18.6-23.34 11.97 0 18.17 12.88 17.6 23.34zm0 0" />
    </symbol>
    <symbol id="g" overflow="visible">
        <path
            d="m54.28-85.33h-5.4v28.4c-4.15-3.34-9.55-5.16-14.96-5.16-8.4 0-23.92 6.9-23.92 31.3 0 23.69 13.34 32.09 23.58 32.09 7.12 0 13-3.7 16.22-10l2.18 10 5.07-.7c-2.2-7.13-2.77-14.5-2.77-21.96zm-5.4 69.8c-2.54 6.56-7.47 12.2-15.2 12.2-6.88 0-18.27-6.1-18.27-27.14 0-22.3 13-27.03 19.9-27.03 5.1 0 9.8 2.64 13.6 5.98zm0 0" />
    </symbol>
    <g transform="translate(-528.72 -655.664)">
        <g fill="#8a8a8a">
            <use height="100%" width="100%" x="510.31" xlink:href="#a" y="783.61" />
            <use height="100%" width="100%" x="556.31" xlink:href="#b" y="783.61" />
            <use height="100%" width="100%" x="609.79" xlink:href="#c" y="783.61" />
            <use height="100%" width="100%" x="663.26" xlink:href="#d" y="783.61" />
            <use height="100%" width="100%" x="715.59" xlink:href="#e" y="783.61" />
            <use height="100%" width="100%" x="768.49" xlink:href="#f" y="783.61" />
            <use height="100%" width="100%" x="821.96" xlink:href="#d" y="783.61" />
            <use height="100%" width="100%" x="876.01" xlink:href="#g" y="783.61" />
        </g>
        <path
            d="m1183.75 736.27c-2.36-2.2-4.6-3.28-6.68-3.28-1.85 0-3.9.9-6.18 2.9-2.3 1.9-4.5 4.4-6.5 7.4s-3.7 6.3-5.1 9.9c-1.4 3.5-2 7-2 10.2 0 1.2.2 2.1.7 2.7s1.1.9 1.9.9c.7 0 2-.9 3.8-2.7s3.8-4.1 6.1-7c2.2-2.9 4.6-6.2 7-9.9s4.6-7.5 6.7-11.4m29.1 13.7c.1.4.1.8.2 1.3v1.2c0 2.9-1 5.6-3.1 8.2-3.2 4.2-6.3 7.7-9.2 10.7-3 3-5.6 5.4-8.1 7.3s-4.6 3.3-6.5 4.2-3.4 1.4-4.5 1.4c-2 0-3.9-.5-5.8-1.6-1.9-1-3.3-2.5-4.2-4.4 0-1.1.1-2.1.3-3.2s.7-2.4 1.2-4c.6-1.6 1.4-3.5 2.5-5.7 1-2.2 2.4-5 4.1-8.4-1.4 0-2.3.3-2.7 1-4 5.3-7.4 9.6-10.2 13-2.8 3.3-5.3 6-7.3 8s-3.7 3.3-5.1 4c-1.3.7-2.5 1.1-3.5 1.1-4-.5-7.2-2.4-9.4-5.5-2.3-3.2-3.4-7.1-3.4-11.9 0-6.5 1.1-12.5 3.4-18 2.3-5.6 5.2-10.4 8.7-14.5s7.4-7.3 11.6-9.6 8.2-3.5 12-3.5c2.94 0 5.44.5 7.5 1.5 2.1 1 4.22 2.7 6.5 5.3 3.2-2.2 6-3.7 8.4-4.6s4.1-1.3 5.3-1.3c1.6 0 2.83.7 3.8 2.1-.4 1.6-1 3.6-1.8 6s-1.58 4.9-2.47 7.6c-.8 2.6-1.7 5.3-2.7 8l-2.5 7.6c-.7 2.3-1.4 4.4-1.9 6.1s-.8 3-.9 3.8c0 .8.6 1.3 1.67 1.3.4 0 .9-.2 1.8-.6.86-.4 2-1.2 3.4-2.3 1.4-1.2 3.17-2.7 5.2-4.6 2-2 4.4-4.4 7.1-7.3"
            fill="#bf2b26" />
        <path
            d="m1223.7 746.97c-.85 1.18-1.93 2.53-3.23 4.04-1.3 1.6-2.7 3.1-4.22 4.8-1.5 1.7-3.1 3.3-4.72 5l-4.6 4.8c2.02 2.6 4.24 4.6 6.68 6.1 2.5 1.5 4.9 2.2 7.2 2.2 2 0 3.8-.7 5.3-2.2s2.2-3.7 2.2-6.6c0-1.4-.1-2.9-.5-4.5-.3-1.6-.7-3.1-1.2-4.7l-1.5-4.5c-.5-1.4-.9-2.8-1.2-4.1m-2.4-10.7c.4-2.4 1.2-4.7 2.3-6.8s2.4-4 3.8-5.5c1.5-1.5 3.1-2.7 4.8-3.6s3.5-1.3 5.3-1.3 3.3.6 4.6 1.7c1.3 1.2 2.1 2.8 2.4 4.9-.6 1.2-1.4 2.4-2.4 3.6s-2.1 2.4-3.3 3.5c.2 1.7.7 3.6 1.7 5.7.9 2.1 1.9 4.3 2.9 6.7s1.9 4.9 2.7 7.6 1.2 5.4 1.2 8.3-.9 5.7-2.7 8.5c-1.8 2.9-4.2 5.4-7 7.7s-5.9 4.1-9.2 5.5-6.5 2.1-9.5 2.1c-3.1 0-5.9-.3-8.4-1.1-2.4-.7-4.6-1.7-6.3-2.9-1.7-1.1-3.1-2.5-4.1-4-.9-1.5-1.4-3-1.4-4.5 0-2.2.3-4.2.9-6.1.6-1.8 1.7-3.8 3.2-5.8.7-.8 1.8-2.1 3.3-3.8s3.1-3.7 4.9-5.8c1.8-2.2 3.6-4.5 5.6-6.9 1.9-2.5 3.6-4.8 5-7.1m74.7 14c.1.4.2.8.2 1.2.1.5.1.9.1 1.3 0 3.1-1 5.9-3 8.2-3.5 4.7-6.9 8.6-10.1 11.6s-6.1 5.4-8.8 7.2c-2.6 1.8-5 3-7 3.7s-3.6 1-4.9 1c-2.8 0-5.5-.8-7.9-2.5-2.4-1.6-4.2-3.9-5.3-6.8l11.5-37-3 .7c-.5-1.6-.7-3.04-.7-4.4.1-2 .6-3.84 1.4-5.53.9-1.7 1.9-2.9 3.1-3.6l3.4-.33 5.3-16.5c2-.5 4.1-.8 6.2-.8 2.8 0 5.2.5 7.1 1.5 2 1 3.1 2.4 3.6 4.08l-3 9.9 12-1.2c-.1 1.7-.5 3.5-1.3 5.3-.8 1.9-1.9 3.57-3.2 5.1l-11 2.4-8.3 28.1c0 2.8.9 4.2 2.6 4.2 1.4 0 3.8-1.14 7.2-3.5 3.5-2.32 8.2-6.7 14.1-13"
            fill="#bf2b26" />
        <path
            d="m1322.72 731.6c-.5 0-1.22.36-2.14 1.07-.93.72-1.94 1.87-3.03 3.47-1.1 1.6-2.22 3.6-3.4 6.05-1.17 2.4-2.27 5.3-3.27 8.6 4.1-1.9 7.4-3.6 9.82-5.1 2.44-1.5 4.12-2.8 5.05-3.8 1.17-1.5 1.76-3.3 1.76-5.5 0-3.4-1.6-5-4.7-5m26.9 17c.2.8.3 1.7.3 2.7 0 1.4-.4 3-1 4.7s-1.4 3.2-2.3 4.4c-5.8 7.9-11.8 13.8-17.9 17.8-6 4-12.2 6-18.6 6-6.9 0-12-1.8-15.5-5.3-3.4-3.5-5.1-8.3-5.1-14.1 0-2.1.2-4.3.7-6.6s1.1-4.5 1.8-6.4c1.6-4.6 3.7-8.7 6.3-12.5s5.5-7 8.7-9.7 6.5-4.7 10-6.2 7-2.2 10.4-2.2c5.2 0 9.2 1.1 11.9 3.3 2.8 2.2 4.1 5.3 4.1 9.2 0 1.3-.2 2.6-.7 4.1s-1.2 2.8-2 4c-.5.6-1.6 1.6-3.3 2.9-1.8 1.3-4 2.7-6.7 4.3s-5.9 3.3-9.6 5c-3.6 1.8-7.6 3.4-11.9 4.9-.1.4-.1.9-.2 1.5 0 .6-.1 1.2-.1 1.9 0 2.3.8 4.1 2.2 5.6s3.7 2.2 6.9 2.2c3.6 0 8.1-1.7 13.5-5s11.6-9 18.5-17"
            fill="#bf2b26" />
        <path
            d="m1399.7 750c.17.34.26.75.26 1.26v1.26c0 1.43-.28 2.85-.82 4.28-.55 1.43-1.28 2.73-2.2 3.9-3.37 4.46-6.54 8.2-9.52 11.22-2.98 3.03-5.7 5.46-8.13 7.3-2.5 1.86-4.6 3.18-6.5 3.98s-3.5 1.2-4.6 1.2c-2.5 0-4.7-.7-6.8-2.08-2.1-1.4-3.9-3.55-5.5-6.5.2-2.18.9-4.6 2.1-7.24 1.1-2.64 2.5-5.4 4.1-8.25s3.3-5.7 5.1-8.5c1.8-2.82 3.4-5.5 4.9-8 0-.5-.2-1-.5-1.46-.4-.46-1-.9-2-1.32-1.1-.42-2.3-.84-3.5-1.26-1.3-.5-2.3-.8-3.1-1.2-2 3.2-4.3 6.5-6.9 10s-5.3 6.9-8.1 10.2-5.7 6.4-8.5 9.4c-2.9 3-5.6 5.5-8.1 7.6-.7-.6-1.2-1.3-1.5-2.2s-.4-1.8-.4-2.8c0-1.1.1-2.2.5-3.2.3-1.1.8-2 1.5-2.9 2.3-1.8 4.8-4.1 7.3-6.9s4.8-5.8 7-8.8c2.1-3.1 4-5.9 5.7-8.7 1.6-2.8 2.9-4.9 3.6-6.4-1.5-2.1-2.2-4.5-2.2-7.1.1-3.5 1.1-6.6 3.1-9.3 1.9-2.8 4.5-4.3 7.7-4.6.1 1.1.3 2.3.7 3.3s1.3 2.1 2.8 3.1c1.4 1 3.5 2.1 6.1 3.2 2.7 1.1 6.3 2.4 10.8 3.8 2.6.8 4.6 1.7 6 2.7 1.3 1 2 2.7 2 5.2-.7 2.2-1.8 4.6-3.3 7.4s-3.1 5.6-4.8 8.4-3.3 5.4-4.7 8c-1.5 2.5-2.4 4.7-2.8 6.5 0 .6.2 1 .6 1.4.4.3.9.5 1.4.5s1.4-.4 2.6-1.2 2.8-1.9 4.6-3.3c1.9-1.4 3.9-3.2 6.1-5.4 2.3-2.2 4.6-4.6 7-7.3"
            fill="#bf2b26" />
        <path
            d="m1410.54 746.97c-.84 1.18-1.9 2.53-3.2 4.04-1.32 1.6-2.72 3.1-4.23 4.8-1.5 1.7-3 3.3-4.7 5l-4.6 4.8c2 2.6 4.3 4.6 6.7 6.1 2.5 1.5 4.9 2.2 7.2 2.2 2 0 3.8-.7 5.3-2.2s2.2-3.7 2.2-6.6c0-1.4-.1-2.9-.5-4.5-.3-1.6-.7-3.1-1.2-4.7l-1.5-4.5c-.5-1.4-.9-2.8-1.2-4.1m-2.4-10.7c.5-2.4 1.2-4.7 2.3-6.8s2.4-4 3.9-5.5 3.1-2.7 4.8-3.6 3.5-1.3 5.2-1.3c1.8 0 3.3.6 4.6 1.7 1.3 1.2 2.1 2.8 2.4 4.9-.6 1.2-1.4 2.4-2.4 3.6s-2.1 2.4-3.2 3.5c.2 1.7.7 3.6 1.6 5.7 1 2.1 1.9 4.3 2.9 6.7s1.9 4.9 2.7 7.6 1.2 5.4 1.2 8.3-.9 5.7-2.7 8.5c-1.8 2.9-4.1 5.4-7 7.7-2.8 2.3-5.9 4.1-9.2 5.5s-6.5 2.1-9.6 2.1-5.9-.3-8.3-1.1c-2.4-.7-4.6-1.7-6.3-2.9-1.7-1.1-3.1-2.5-4.1-4-.9-1.5-1.4-3-1.4-4.5 0-2.2.3-4.2 1-6.1.7-1.8 1.7-3.8 3.2-5.8.7-.8 1.8-2.1 3.3-3.8s3.2-3.7 5-5.8c1.8-2.2 3.7-4.5 5.6-6.9 2-2.5 3.7-4.8 5.1-7.1m-256.31-58.21c-2.9 7.5-5.6 15.6-8.2 24.22-2.5 8.66-4.8 17.16-6.6 25.5-1.8 8.37-3.4 16.34-4.5 23.9-1.1 7.6-1.7 14.04-1.7 19.36 0 2.6.3 4.8.9 6.7.7 1.9 1.6 3.3 2.8 4.18-1.8 2.3-4.1 4.1-7 5.2-2.9 1.2-5.8 1.8-8.7 1.8-4.2 0-7.7-1.26-10.6-3.8-2.8-2.55-4.3-6.86-4.3-12.95 0-2.2.3-5.3.9-9.2s1.4-8.4 2.4-13.4c1.1-5 2.3-10.4 3.8-16.3 1.47-5.8 3-11.8 4.68-17.7-.65 0-1.12.1-1.4.2-.3.1-.6.4-.9.8l-40.8 62c-4.9 1.7-9.2 2.5-12.94 2.5-2.62 0-4.95-.5-6.94-1.6-2-1-3.5-2.8-4.4-5.4.35-2.9.66-6.3.9-10l.8-11.4c.3-3.9.5-7.8.8-11.8.2-4 .4-7.9.5-11.6.1-2.2.2-4.22.2-6.1v-6c-.1-.9-.3-1.5-.4-1.7-.2-.2-.57-.3-1.1-.3-9 16.18-16.77 29.77-23.3 40.77-6.6 11-12.47 19.9-17.56 26.6-5.1 6.8-9.7 11.6-13.8 14.5-4.1 3-8.1 4.4-12 4.4-4.4 0-8.1-1.5-11.02-4.7-2.9-3.12-5-7.4-6.1-12.83.6.2 1.3.4 2.3.4 4.7 0 9.2-1.9 13.7-5.9 4.5-3.9 9.1-9 13.7-15.4 4.7-6.4 9.5-13.6 14.4-21.8 4.95-8.2 10.18-16.4 15.7-24.8 2.78-4.2 5.3-7.3 7.56-9.3 2.24-2 4.9-3 8.03-3 1.7 0 3.6.3 5.8.9 1.3 0 2.1-.6 2.2-1.8-.8-9-3.5-15.8-8.1-20.6-4.6-4.7-11.2-7.1-19.7-7.1-6.9 0-13.5 1.7-19.6 4.9-6 3.3-11.3 7.6-15.8 13s-8 11.6-10.6 18.6-3.9 14.4-3.9 22c0 5.1 1.6 8.4 4.7 10-1.83 2.6-4.1 4.6-6.8 6-2.62 1.5-5.5 2.2-8.43 2.2-4.44 0-8.2-1.43-11.2-4.3-3.1-2.9-4.6-7.5-4.6-13.8 0-7.1 1.16-13.9 3.4-20.4 2.27-6.54 5.37-12.7 9.3-18.5 3.9-5.8 8.55-11.1 13.86-15.87 5.3-4.7 11-8.8 17.1-12.3 6.1-3.4 12.4-6.06 19-7.9 6.6-1.87 13.14-2.8 19.7-2.8 16.25 0 28.5 5.02 36.7 15.1 8.2 10.1 12.3 25.8 12.3 47.13 0 1.6-.1 3.6-.1 6.17l-.3 7.8-.3 7.4c-.1 2.28-.26 3.9-.37 4.9.64 0 1.1-.1 1.4-.2s.5-.4.7-.8l43.7-63.7c1.3-2.2 2.5-3.3 3.64-3.3.3 0 .8-.05 1.4-.1s1.1-.14 1.4-.25c1.64-1.9 4.2-2.9 7.62-2.9 2.2 0 4.7.4 7.44 1.2 2.8.74 5.8 2.1 9 3.94"
            fill="#bf2b26" />
    </g>
</svg>