<svg width="168" height="41" fill="none" xmlns="http://www.w3.org/2000/svg"><g fill-rule="evenodd" clip-rule="evenodd"><path d="M13.92 16.474c-5.173-1.53-4.588 11.792 1.443 8.142 1.74-1.053 4.035-2.567 6.78-2.567 2.478 0 3.833 2.683 6.31 2.683 3.569-.388 3.415-7.162 1.005-7.381-2.535 0-4.612 4.28-7.892 3.275-2.833-.869-5.74-3.588-7.645-4.152zm.7-2.147c2.643.781 4.945 3.31 7.613 4.128.217.066.402.068.62.009.51-.138 1.096-.57 1.515-.887 1.548-1.171 2.97-2.474 5.033-2.474h.103l.103.01c5.312.483 5.26 11.364-.957 12.04l-.123.014h-.154a4.8 4.8 0 0 1-.588-.03c-1.6-.199-2.69-.923-3.826-1.718-.453-.317-1.233-.917-1.82-.917-2.031 0-3.863 1.198-5.548 2.218-1.66 1.005-3.594 1.368-5.354.386-2.078-1.16-2.972-3.702-3.063-5.995-.096-2.379.655-5.174 2.821-6.42 1.125-.647 2.397-.728 3.626-.364z" fill="url(#a)"/><path d="M19.155 5.586c-20.244-1.327-7.236-.08-11.768 5.908a15.275 15.275 0 0 0-3.084 9.247c0 8.37 6.65 15.154 14.852 15.154 6.072 0 11.293-3.72 13.595-9.046 1.436-2.854 2.3-7 .025-12.073-2.292-5.236-7.536-8.791-13.62-9.19zm.155-2.468c9.316.61 17.12 7.808 17.12 17.623 0 9.735-7.735 17.628-17.275 17.628S1.88 30.475 1.88 20.74c0-3.904 1.25-7.667 3.588-10.758.346-.458.668-.953.464-1.535-.453-1.286-1.409-1.976-.835-3.675.709-2.099 3.022-2.15 4.816-2.14 3.097.017 6.305.282 9.397.485z" fill="url(#b)"/><path d="M113.637 28.38c-2.862 0-5.37-2.349-5.37-6.022v-.06c0-3.765 2.42-5.993 5.37-5.993 2.833 0 5.519 2.409 5.519 5.992v.06c0 3.584-2.686 6.023-5.519 6.023zm12.733-6.928c.298-3.074 2.326-5.356 5.01-5.356 3.073 0 4.683 2.495 4.922 5.356h-9.932zm5.458 9.27c2.924 0 4.802-1.187 6.354-2.952l-1.432-1.308c-1.253 1.338-2.744 2.221-4.862 2.221-2.744 0-5.1-1.917-5.428-5.326h12.229c.03-.274.03-.456.03-.76 0-4.597-2.625-8.31-7.189-8.31-4.265 0-7.397 3.653-7.397 8.187v.061c0 4.87 3.46 8.187 7.695 8.187zm13.596-.38h2.03l6.718-15.874h-2.478l-5.225 13.07-5.195-13.07h-2.538l6.688 15.873zm15.22.173c3.073 0 5.489-1.735 5.489-4.719v-.018c0-2.863-2.595-3.818-5.009-4.557-2.082-.647-4.013-1.232-4.013-2.74v-.046c0-1.291 1.148-2.252 2.943-2.252 1.471 0 3.09.57 4.502 1.501l1.03-1.742c-1.56-1.05-3.619-1.71-5.473-1.71-3.002 0-5.18 1.77-5.18 4.443v.061c0 2.916 2.707 3.775 5.143 4.481 2.045.583 3.88 1.197 3.88 2.792v.031c0 1.522-1.343 2.496-3.192 2.496-1.82 0-3.669-.73-5.34-2.009l-1.163 1.674c1.73 1.43 4.176 2.314 6.383 2.314zm-47.441-.054c2.856 0 4.69-1.613 5.953-3.5v3.063h2.177V10.34h-2.177v7.063c-1.203-1.765-3.067-3.348-5.953-3.348-3.728 0-7.425 3.044-7.425 8.188v.06c0 5.175 3.697 8.157 7.425 8.157z" fill="url(#c)"/><path d="M68.396 30.583c-1.193 0-2.302-.202-3.326-.608a7.692 7.692 0 0 1-2.654-1.735 8.037 8.037 0 0 1-1.745-2.663c-.418-1.025-.627-2.166-.627-3.424v-.061c0-1.156.194-2.252.582-3.287a8.392 8.392 0 0 1 1.626-2.709 7.638 7.638 0 0 1 2.49-1.826c.965-.446 2.033-.67 3.207-.67 1.332 0 2.485.244 3.46.73a7.061 7.061 0 0 1 2.43 1.964 8.23 8.23 0 0 1 1.432 2.83 11.95 11.95 0 0 1 .448 3.911c-.01.203-.025.416-.045.64H64.548c.22 1.055.671 1.85 1.358 2.389.685.537 1.535.806 2.55.806.755 0 1.431-.132 2.028-.396.597-.263 1.213-.69 1.85-1.278l2.594 2.344a8.077 8.077 0 0 1-2.744 2.237c-1.074.537-2.337.806-3.788.806zm2.78-9.765c-.14-1.035-.497-1.872-1.074-2.511-.577-.64-1.342-.96-2.297-.96-.954 0-1.725.315-2.311.945-.587.629-.97 1.47-1.148 2.525h6.83zm5.98-6.985h4.666v3.222c.446-1.094 1.058-1.969 1.834-2.625.776-.656 1.825-.955 3.144-.895v4.743h-.233c-1.475 0-2.634.457-3.478 1.372-.845.915-1.267 2.336-1.267 4.265v6.109h-4.666v-16.19zm18.947 16.802c-1.241 0-2.393-.22-3.454-.659a8.424 8.424 0 0 1-2.749-1.808 8.416 8.416 0 0 1-1.817-2.697 8.375 8.375 0 0 1-.66-3.326v-.061c0-1.186.22-2.294.66-3.326a8.472 8.472 0 0 1 1.832-2.713 8.675 8.675 0 0 1 2.764-1.84c1.061-.448 2.223-.673 3.485-.673 1.241 0 2.392.22 3.454.659a8.41 8.41 0 0 1 2.748 1.808 8.412 8.412 0 0 1 1.817 2.697 8.374 8.374 0 0 1 .661 3.326v.062c0 1.185-.22 2.293-.661 3.325a8.484 8.484 0 0 1-1.831 2.713 8.678 8.678 0 0 1-2.764 1.839c-1.061.45-2.223.674-3.484.674zm-.095-4.02c.66 0 1.245-.118 1.755-.353.51-.235.945-.556 1.305-.964.36-.408.635-.883.825-1.424.19-.54.285-1.117.285-1.73v-.06c0-.613-.1-1.19-.3-1.73a4.37 4.37 0 0 0-.87-1.439 4.26 4.26 0 0 0-1.35-.995 3.964 3.964 0 0 0-1.71-.367c-.66 0-1.245.117-1.755.352-.51.235-.945.556-1.305.964a4.27 4.27 0 0 0-.826 1.424 5.186 5.186 0 0 0-.284 1.73v.06c0 .613.1 1.19.3 1.73.2.54.49 1.02.87 1.439.38.418.825.75 1.335.995s1.085.367 1.725.367zM48.222 10.34v6.02c.263-.35.55-.68.864-.999.313-.314.66-.593 1.044-.842a5.417 5.417 0 0 1 1.272-.583c.465-.143.99-.213 1.575-.213 1.757 0 3.114.537 4.073 1.613.96 1.075 1.439 2.556 1.439 4.444v10.56h-4.667v-9.08c0-1.09-.24-1.917-.718-2.47-.48-.558-1.158-.837-2.037-.837-.878 0-1.572.28-2.081.837-.51.553-.764 1.38-.764 2.47v8.763h-4.666V10.34h4.666z" fill="#fff"/></g><defs><linearGradient id="a" x1="8.166" y1="20.898" x2="33.46" y2="20.898" gradientUnits="userSpaceOnUse"><stop stop-color="#F926E1"/><stop offset=".019" stop-color="#F926E1"/><stop offset="1" stop-color="#29B6FB"/></linearGradient><linearGradient id="b" x1="1.88" y1="20.5" x2="36.43" y2="20.5" gradientUnits="userSpaceOnUse"><stop stop-color="#F926E1"/><stop offset=".019" stop-color="#F926E1"/><stop offset="1" stop-color="#29B6FB"/></linearGradient><linearGradient id="c" x1="105.778" y1="20.532" x2="166.133" y2="20.532" gradientUnits="userSpaceOnUse"><stop stop-color="#29B6FB"/><stop offset="1" stop-color="#F926E1"/></linearGradient></defs></svg>