<svg width="298" height="150" viewBox="0 0 298 150" fill="none" xmlns="http://www.w3.org/2000/svg">
<rect x="0.671875" width="296.672" height="150" rx="10" fill="#1B0B31"/>
<path d="M131.199 74.8085C130.53 74.4335 129.82 74.1388 129.083 73.9304C128.292 73.6625 126.755 73.241 124.376 72.657C123.04 72.399 121.721 72.0648 120.424 71.6559C118.782 71.0192 118.092 70.1718 118.092 68.7448C118.092 66.2595 120.209 64.6701 123.383 64.6701C126.716 64.6701 129.416 66.2595 130.896 69.1663L134.281 66.4703C132.586 63.0323 128.411 60.7622 123.594 60.7622C120.635 60.7622 118.202 61.5555 116.296 63.1421C115.385 63.8442 114.651 64.751 114.154 65.7891C113.658 66.8272 113.412 67.9675 113.438 69.118C113.438 71.6603 114.316 73.4561 116.402 74.6724C117.086 75.1003 117.813 75.455 118.571 75.7306C119.418 75.9984 120.793 76.3673 122.751 76.7888C124.389 77.162 125.5 77.3728 125.978 77.5308C126.427 77.6162 126.868 77.7396 127.295 77.8997C129.197 78.5363 129.93 79.5418 129.93 81.1796C129.93 83.9327 127.497 85.5705 123.849 85.5705C122.091 85.5978 120.362 85.1247 118.863 84.2066C117.364 83.2884 116.157 81.963 115.383 80.3849L111.682 83.0853C113.64 87.1073 118.4 89.5398 123.849 89.5398C126.922 89.5398 129.456 88.6924 131.519 87.0502C132.493 86.3194 133.279 85.368 133.814 84.2742C134.348 83.1803 134.615 81.9753 134.593 80.7581C134.593 78.0358 133.526 76.1346 131.199 74.8085Z" fill="white"/>
<path d="M210.498 65.3418C208.961 62.5361 205.668 60.7402 202.032 60.7402C198.397 60.7402 195.262 62.1673 193.093 64.9203C191.134 67.4055 190.019 70.7382 190.019 74.4924C189.948 77.954 191.029 81.3412 193.093 84.1215C194.162 85.4574 195.525 86.5293 197.075 87.2541C198.625 87.979 200.321 88.3374 202.032 88.3016C205.681 88.3016 208.961 86.5013 210.498 83.6956V86.8175C210.498 92.1611 207.692 95.0722 202.401 95.0722C198.542 95.0722 195.683 93.0085 194.783 89.4651L190.357 91.1512C191.841 96.1787 196.285 99.0547 202.419 99.0547C206.335 99.0547 209.444 97.9438 211.784 95.6694C214.125 93.3949 215.275 90.3257 215.275 86.4486V61.2671H210.498V65.3418ZM210.55 75.0763C210.55 80.5781 207.376 84.1215 202.88 84.1215C197.958 84.1215 194.783 80.3629 194.783 74.4924C194.783 68.6218 197.857 64.9203 202.88 64.9203C207.376 64.9203 210.55 68.5164 210.55 74.0708V75.0763Z" fill="white"/>
<path d="M246.358 74.2816C246.358 70.2069 245.3 66.927 243.183 64.4417C241.067 61.9565 238.208 60.7403 234.56 60.7403C232.766 60.7119 230.988 61.087 229.359 61.8379C227.729 62.5888 226.29 63.6962 225.146 65.0784C222.977 67.669 221.809 71.2651 221.809 75.1291C221.809 79.1467 223.029 82.6945 225.194 85.228C227.525 88.0294 230.902 89.5135 234.77 89.5135C240.219 89.5135 244.452 86.6023 246.143 81.5792L241.967 80.0951C241.12 83.4278 238.419 85.3641 234.77 85.3641C229.905 85.3641 226.625 81.6099 226.362 75.8404H246.358V74.2816ZM226.625 72.2179C227.473 67.5636 230.432 64.8106 234.507 64.8106C238.792 64.8106 241.383 67.7217 241.532 72.2179H226.625Z" fill="white"/>
<path d="M171.34 61.2672V65.4692V88.9339H176.1V65.4692H187.015V61.2672H176.1H171.34Z" fill="white"/>
<path d="M257.369 50.8521H258.906L262.924 61.2671H261.514L260.456 58.5272H255.78L254.739 61.2671H253.343L257.369 50.8521ZM258.107 52.4196L256.25 57.3066H259.991L258.107 52.4196Z" fill="white"/>
<path d="M265.699 50.8521V61.2671H264.307V50.8521H265.699Z" fill="white"/>
<path d="M158.172 61.2672V78.7778C158.172 80.461 157.504 82.0752 156.314 83.2658C155.124 84.4564 153.51 85.1258 151.827 85.127C150.143 85.127 148.528 84.4581 147.338 83.2674C146.147 82.0767 145.478 80.4617 145.478 78.7778V61.2672H140.74V78.3914C140.74 81.3377 141.911 84.1633 143.994 86.2466C146.077 88.3299 148.903 89.5003 151.849 89.5003C154.795 89.5003 157.621 88.3299 159.704 86.2466C161.788 84.1633 162.958 81.3377 162.958 78.3914V61.2672H158.172Z" fill="white"/>
<path d="M89.2965 77.241C87.6905 74.4604 85.2756 72.2348 82.3734 70.8606C79.4712 69.4863 76.2192 69.0286 73.0504 69.5483L83.5006 63.5152C85.2997 62.4773 86.8766 61.0953 88.1415 59.4479C89.4064 57.8005 90.3345 55.9202 90.8727 53.9141C91.4109 51.9081 91.5487 49.8157 91.2783 47.7565C91.0078 45.6972 90.3344 43.7113 89.2965 41.9123C88.2586 40.1133 86.8765 38.5363 85.2292 37.2714C83.5818 36.0065 81.7015 35.0784 79.6954 34.5402C77.6894 34.002 75.597 33.8642 73.5377 34.1346C71.4785 34.4051 69.4926 35.0785 67.6936 36.1164L40.2903 51.9234C37.0725 53.765 34.6045 56.6791 33.3176 60.1561C32.0308 63.6331 32.0071 67.4519 33.2507 70.9446C34.4943 74.4373 36.926 77.3818 40.1207 79.2631C43.3154 81.1445 47.0698 81.8431 50.7274 81.2367L40.2771 87.2697C38.4767 88.3068 36.8983 89.6886 35.6324 91.3362C34.3664 92.9839 33.4378 94.8649 32.8994 96.8717C32.3611 98.8786 32.2238 100.972 32.4952 103.032C32.7666 105.092 33.4415 107.078 34.4812 108.877C35.5187 110.677 36.9008 112.255 38.5486 113.521C40.1964 114.786 42.0774 115.714 44.0843 116.252C46.0911 116.79 48.1843 116.927 50.2441 116.655C52.3039 116.384 54.2899 115.708 56.0886 114.669L83.4874 98.8615C85.2876 97.8241 86.8655 96.442 88.131 94.7942C89.3965 93.1464 90.3247 91.2653 90.8626 89.2585C91.4005 87.2517 91.5375 85.1585 91.2658 83.0987C90.994 81.0389 90.3189 79.0529 89.279 77.2542L89.2965 77.241Z" fill="url(#paint0_linear_2_317)"/>
<defs>
<linearGradient id="paint0_linear_2_317" x1="32.2859" y1="75.3442" x2="91.5623" y2="75.3442" gradientUnits="userSpaceOnUse">
<stop stop-color="#8200FF"/>
<stop offset="1" stop-color="#BE82FA"/>
</linearGradient>
</defs>
</svg>