<svg width="149" height="89" viewBox="0 0 149 89" fill="none" xmlns="http://www.w3.org/2000/svg">
<g filter="url(#filter0_f_81_5)">
<path d="M52.4655 64.616C52.4655 66.536 52.7535 67.976 53.3295 68.936C53.9055 69.832 54.8975 70.504 56.3055 70.952L53.8095 78.248C48.4975 77.608 45.0095 75.272 43.3455 71.24C41.4895 73.544 39.1535 75.304 36.3375 76.52C33.5855 77.672 30.5455 78.248 27.2175 78.248C22.0975 78.248 18.0335 76.808 15.0255 73.928C12.0175 71.048 10.5135 67.24 10.5135 62.504C10.5135 57.192 12.5935 53.096 16.7535 50.216C20.9775 47.336 26.9295 45.896 34.6095 45.896H41.8095V42.632C41.8095 39.432 40.8495 37.096 38.9295 35.624C37.0095 34.152 34.2255 33.416 30.5775 33.416C28.7855 33.416 26.7055 33.64 24.3375 34.088C21.9695 34.536 19.5695 35.176 17.1375 36.008L14.4495 28.424C20.5295 26.12 26.4495 24.968 32.2095 24.968C38.9295 24.968 43.9855 26.44 47.3775 29.384C50.7695 32.328 52.4655 36.52 52.4655 41.96V64.616ZM30.3855 70.376C32.6255 70.376 34.7695 69.8 36.8175 68.648C38.9295 67.496 40.5935 65.896 41.8095 63.848V52.616H35.8575C30.9935 52.616 27.4415 53.448 25.2015 55.112C22.9615 56.712 21.8415 59.048 21.8415 62.12C21.8415 64.808 22.5455 66.856 23.9535 68.264C25.4255 69.672 27.5695 70.376 30.3855 70.376Z" fill="#34D399"/>
<path d="M68.46 35.528C68.46 33.16 69.292 31.144 70.956 29.48C72.62 27.752 74.636 26.888 77.004 26.888C79.436 26.888 81.484 27.752 83.148 29.48C84.812 31.144 85.644 33.16 85.644 35.528C85.644 37.896 84.812 39.944 83.148 41.672C81.484 43.336 79.436 44.168 77.004 44.168C74.636 44.168 72.62 43.336 70.956 41.672C69.292 39.944 68.46 37.896 68.46 35.528ZM68.46 69.608C68.46 67.24 69.292 65.224 70.956 63.56C72.62 61.896 74.636 61.064 77.004 61.064C79.5 61.064 81.548 61.896 83.148 63.56C84.812 65.224 85.644 67.24 85.644 69.608C85.644 72.04 84.812 74.088 83.148 75.752C81.548 77.416 79.5 78.248 77.004 78.248C74.636 78.248 72.62 77.416 70.956 75.752C69.292 74.088 68.46 72.04 68.46 69.608Z" fill="#FB7185"/>
</g>
<g filter="url(#filter1_f_81_5)">
<path d="M120.795 77H105.051V22.568H86.3308V10.472H140.187L138.651 22.568H120.795V77Z" fill="#5193FE"/>
</g>
<path d="M52.4655 64.616C52.4655 66.536 52.7535 67.976 53.3295 68.936C53.9055 69.832 54.8975 70.504 56.3055 70.952L53.8095 78.248C48.4975 77.608 45.0095 75.272 43.3455 71.24C41.4895 73.544 39.1535 75.304 36.3375 76.52C33.5855 77.672 30.5455 78.248 27.2175 78.248C22.0975 78.248 18.0335 76.808 15.0255 73.928C12.0175 71.048 10.5135 67.24 10.5135 62.504C10.5135 57.192 12.5935 53.096 16.7535 50.216C20.9775 47.336 26.9295 45.896 34.6095 45.896H41.8095V42.632C41.8095 39.432 40.8495 37.096 38.9295 35.624C37.0095 34.152 34.2255 33.416 30.5775 33.416C28.7855 33.416 26.7055 33.64 24.3375 34.088C21.9695 34.536 19.5695 35.176 17.1375 36.008L14.4495 28.424C20.5295 26.12 26.4495 24.968 32.2095 24.968C38.9295 24.968 43.9855 26.44 47.3775 29.384C50.7695 32.328 52.4655 36.52 52.4655 41.96V64.616ZM30.3855 70.376C32.6255 70.376 34.7695 69.8 36.8175 68.648C38.9295 67.496 40.5935 65.896 41.8095 63.848V52.616H35.8575C30.9935 52.616 27.4415 53.448 25.2015 55.112C22.9615 56.712 21.8415 59.048 21.8415 62.12C21.8415 64.808 22.5455 66.856 23.9535 68.264C25.4255 69.672 27.5695 70.376 30.3855 70.376Z" fill="#34D399"/>
<path d="M68.46 35.528C68.46 33.16 69.292 31.144 70.956 29.48C72.62 27.752 74.636 26.888 77.004 26.888C79.436 26.888 81.484 27.752 83.148 29.48C84.812 31.144 85.644 33.16 85.644 35.528C85.644 37.896 84.812 39.944 83.148 41.672C81.484 43.336 79.436 44.168 77.004 44.168C74.636 44.168 72.62 43.336 70.956 41.672C69.292 39.944 68.46 37.896 68.46 35.528ZM68.46 69.608C68.46 67.24 69.292 65.224 70.956 63.56C72.62 61.896 74.636 61.064 77.004 61.064C79.5 61.064 81.548 61.896 83.148 63.56C84.812 65.224 85.644 67.24 85.644 69.608C85.644 72.04 84.812 74.088 83.148 75.752C81.548 77.416 79.5 78.248 77.004 78.248C74.636 78.248 72.62 77.416 70.956 75.752C69.292 74.088 68.46 72.04 68.46 69.608Z" fill="#FB7185"/>
<path d="M120.795 77H105.051V22.568H86.3308V10.472H140.187L138.651 22.568H120.795V77Z" fill="#5193FE"/>
<defs>
<filter id="filter0_f_81_5" x="0.513428" y="14.968" width="95.1306" height="73.28" filterUnits="userSpaceOnUse" color-interpolation-filters="sRGB">
<feFlood flood-opacity="0" result="BackgroundImageFix"/>
<feBlend mode="normal" in="SourceGraphic" in2="BackgroundImageFix" result="shape"/>
<feGaussianBlur stdDeviation="5" result="effect1_foregroundBlur_81_5"/>
</filter>
<filter id="filter1_f_81_5" x="76.3308" y="0.471924" width="73.856" height="86.5281" filterUnits="userSpaceOnUse" color-interpolation-filters="sRGB">
<feFlood flood-opacity="0" result="BackgroundImageFix"/>
<feBlend mode="normal" in="SourceGraphic" in2="BackgroundImageFix" result="shape"/>
<feGaussianBlur stdDeviation="5" result="effect1_foregroundBlur_81_5"/>
</filter>
</defs>
</svg>
