<svg width="151" height="151" viewBox="0 0 151 151" fill="none" xmlns="http://www.w3.org/2000/svg">
<mask id="mask0_1278_107" style="mask-type:alpha" maskUnits="userSpaceOnUse" x="0" y="0" width="151" height="151">
<rect width="151" height="151" fill="black"/>
</mask>
<g mask="url(#mask0_1278_107)">
<g filter="url(#filter0_f_1278_107)">
<path d="M52.4655 94.616C52.4655 96.536 52.7535 97.976 53.3295 98.936C53.9055 99.832 54.8975 100.504 56.3055 100.952L53.8095 108.248C48.4975 107.608 45.0095 105.272 43.3455 101.24C41.4895 103.544 39.1535 105.304 36.3375 106.52C33.5855 107.672 30.5455 108.248 27.2175 108.248C22.0975 108.248 18.0335 106.808 15.0255 103.928C12.0175 101.048 10.5135 97.24 10.5135 92.504C10.5135 87.192 12.5935 83.096 16.7535 80.216C20.9775 77.336 26.9295 75.896 34.6095 75.896H41.8095V72.632C41.8095 69.432 40.8495 67.096 38.9295 65.624C37.0095 64.152 34.2255 63.416 30.5775 63.416C28.7855 63.416 26.7055 63.64 24.3375 64.088C21.9695 64.536 19.5695 65.176 17.1375 66.008L14.4495 58.424C20.5295 56.12 26.4495 54.968 32.2095 54.968C38.9295 54.968 43.9855 56.44 47.3775 59.384C50.7695 62.328 52.4655 66.52 52.4655 71.96V94.616ZM30.3855 100.376C32.6255 100.376 34.7695 99.8 36.8175 98.648C38.9295 97.496 40.5935 95.896 41.8095 93.848V82.616H35.8575C30.9935 82.616 27.4415 83.448 25.2015 85.112C22.9615 86.712 21.8415 89.048 21.8415 92.12C21.8415 94.808 22.5455 96.856 23.9535 98.264C25.4255 99.672 27.5695 100.376 30.3855 100.376Z" fill="#34D399"/>
<path d="M68.46 65.528C68.46 63.16 69.292 61.144 70.956 59.48C72.62 57.752 74.636 56.888 77.004 56.888C79.436 56.888 81.484 57.752 83.148 59.48C84.812 61.144 85.644 63.16 85.644 65.528C85.644 67.896 84.812 69.944 83.148 71.672C81.484 73.336 79.436 74.168 77.004 74.168C74.636 74.168 72.62 73.336 70.956 71.672C69.292 69.944 68.46 67.896 68.46 65.528ZM68.46 99.608C68.46 97.24 69.292 95.224 70.956 93.56C72.62 91.896 74.636 91.064 77.004 91.064C79.5 91.064 81.548 91.896 83.148 93.56C84.812 95.224 85.644 97.24 85.644 99.608C85.644 102.04 84.812 104.088 83.148 105.752C81.548 107.416 79.5 108.248 77.004 108.248C74.636 108.248 72.62 107.416 70.956 105.752C69.292 104.088 68.46 102.04 68.46 99.608Z" fill="#FB7185"/>
</g>
<path d="M52.4655 94.616C52.4655 96.536 52.7535 97.976 53.3295 98.936C53.9055 99.832 54.8975 100.504 56.3055 100.952L53.8095 108.248C48.4975 107.608 45.0095 105.272 43.3455 101.24C41.4895 103.544 39.1535 105.304 36.3375 106.52C33.5855 107.672 30.5455 108.248 27.2175 108.248C22.0975 108.248 18.0335 106.808 15.0255 103.928C12.0175 101.048 10.5135 97.24 10.5135 92.504C10.5135 87.192 12.5935 83.096 16.7535 80.216C20.9775 77.336 26.9295 75.896 34.6095 75.896H41.8095V72.632C41.8095 69.432 40.8495 67.096 38.9295 65.624C37.0095 64.152 34.2255 63.416 30.5775 63.416C28.7855 63.416 26.7055 63.64 24.3375 64.088C21.9695 64.536 19.5695 65.176 17.1375 66.008L14.4495 58.424C20.5295 56.12 26.4495 54.968 32.2095 54.968C38.9295 54.968 43.9855 56.44 47.3775 59.384C50.7695 62.328 52.4655 66.52 52.4655 71.96V94.616ZM30.3855 100.376C32.6255 100.376 34.7695 99.8 36.8175 98.648C38.9295 97.496 40.5935 95.896 41.8095 93.848V82.616H35.8575C30.9935 82.616 27.4415 83.448 25.2015 85.112C22.9615 86.712 21.8415 89.048 21.8415 92.12C21.8415 94.808 22.5455 96.856 23.9535 98.264C25.4255 99.672 27.5695 100.376 30.3855 100.376Z" fill="#34D399"/>
<path d="M68.46 65.528C68.46 63.16 69.292 61.144 70.956 59.48C72.62 57.752 74.636 56.888 77.004 56.888C79.436 56.888 81.484 57.752 83.148 59.48C84.812 61.144 85.644 63.16 85.644 65.528C85.644 67.896 84.812 69.944 83.148 71.672C81.484 73.336 79.436 74.168 77.004 74.168C74.636 74.168 72.62 73.336 70.956 71.672C69.292 69.944 68.46 67.896 68.46 65.528ZM68.46 99.608C68.46 97.24 69.292 95.224 70.956 93.56C72.62 91.896 74.636 91.064 77.004 91.064C79.5 91.064 81.548 91.896 83.148 93.56C84.812 95.224 85.644 97.24 85.644 99.608C85.644 102.04 84.812 104.088 83.148 105.752C81.548 107.416 79.5 108.248 77.004 108.248C74.636 108.248 72.62 107.416 70.956 105.752C69.292 104.088 68.46 102.04 68.46 99.608Z" fill="#FB7185"/>
<path d="M120.795 107H105.051V52.568H86.3308V40.472H140.187L138.651 52.568H120.795V107Z" fill="#60A5FA"/>
<g filter="url(#filter1_f_1278_107)">
<path d="M120.795 107H105.051V52.568H86.3308V40.472H140.187L138.651 52.568H120.795V107Z" fill="#60A5FA"/>
</g>
</g>
<defs>
<filter id="filter0_f_1278_107" x="0.513428" y="44.968" width="95.1306" height="73.28" filterUnits="userSpaceOnUse" color-interpolation-filters="sRGB">
<feFlood flood-opacity="0" result="BackgroundImageFix"/>
<feBlend mode="normal" in="SourceGraphic" in2="BackgroundImageFix" result="shape"/>
<feGaussianBlur stdDeviation="5" result="effect1_foregroundBlur_1278_107"/>
</filter>
<filter id="filter1_f_1278_107" x="76.3308" y="30.4719" width="73.856" height="86.5281" filterUnits="userSpaceOnUse" color-interpolation-filters="sRGB">
<feFlood flood-opacity="0" result="BackgroundImageFix"/>
<feBlend mode="normal" in="SourceGraphic" in2="BackgroundImageFix" result="shape"/>
<feGaussianBlur stdDeviation="5" result="effect1_foregroundBlur_1278_107"/>
</filter>
</defs>
</svg>
