<svg width="151" height="151" viewBox="0 0 151 151" fill="none" xmlns="http://www.w3.org/2000/svg">
<mask id="mask0_1278_107" style="mask-type:alpha" maskUnits="userSpaceOnUse" x="0" y="0" width="151" height="151">
<rect width="151" height="151" fill="black"/>
</mask>
<g mask="url(#mask0_1278_107)">
<g filter="url(#filter0_f_1278_107)">
<path d="M51.4655 94.616C51.4655 96.536 51.7535 97.976 52.3295 98.936C52.9055 99.832 53.8975 100.504 55.3055 100.952L52.8095 108.248C47.4975 107.608 44.0095 105.272 42.3455 101.24C40.4895 103.544 38.1535 105.304 35.3375 106.52C32.5855 107.672 29.5455 108.248 26.2175 108.248C21.0975 108.248 17.0335 106.808 14.0255 103.928C11.0175 101.048 9.5135 97.24 9.5135 92.504C9.5135 87.192 11.5935 83.096 15.7535 80.216C19.9775 77.336 25.9295 75.896 33.6095 75.896H40.8095V72.632C40.8095 69.432 39.8495 67.096 37.9295 65.624C36.0095 64.152 33.2255 63.416 29.5775 63.416C27.7855 63.416 25.7055 63.64 23.3375 64.088C20.9695 64.536 18.5695 65.176 16.1375 66.008L13.4495 58.424C19.5295 56.12 25.4495 54.968 31.2095 54.968C37.9295 54.968 42.9855 56.44 46.3775 59.384C49.7695 62.328 51.4655 66.52 51.4655 71.96V94.616ZM29.3855 100.376C31.6255 100.376 33.7695 99.8 35.8175 98.648C37.9295 97.496 39.5935 95.896 40.8095 93.848V82.616H34.8575C29.9935 82.616 26.4415 83.448 24.2015 85.112C21.9615 86.712 20.8415 89.048 20.8415 92.12C20.8415 94.808 21.5455 96.856 22.9535 98.264C24.4255 99.672 26.5695 100.376 29.3855 100.376Z" fill="#34D399"/>
<path d="M67.46 65.528C67.46 63.16 68.292 61.144 69.956 59.48C71.62 57.752 73.636 56.888 76.004 56.888C78.436 56.888 80.484 57.752 82.148 59.48C83.812 61.144 84.644 63.16 84.644 65.528C84.644 67.896 83.812 69.944 82.148 71.672C80.484 73.336 78.436 74.168 76.004 74.168C73.636 74.168 71.62 73.336 69.956 71.672C68.292 69.944 67.46 67.896 67.46 65.528ZM67.46 99.608C67.46 97.24 68.292 95.224 69.956 93.56C71.62 91.896 73.636 91.064 76.004 91.064C78.5 91.064 80.548 91.896 82.148 93.56C83.812 95.224 84.644 97.24 84.644 99.608C84.644 102.04 83.812 104.088 82.148 105.752C80.548 107.416 78.5 108.248 76.004 108.248C73.636 108.248 71.62 107.416 69.956 105.752C68.292 104.088 67.46 102.04 67.46 99.608Z" fill="#FB7185"/>
</g>
<path d="M51.4655 94.616C51.4655 96.536 51.7535 97.976 52.3295 98.936C52.9055 99.832 53.8975 100.504 55.3055 100.952L52.8095 108.248C47.4975 107.608 44.0095 105.272 42.3455 101.24C40.4895 103.544 38.1535 105.304 35.3375 106.52C32.5855 107.672 29.5455 108.248 26.2175 108.248C21.0975 108.248 17.0335 106.808 14.0255 103.928C11.0175 101.048 9.5135 97.24 9.5135 92.504C9.5135 87.192 11.5935 83.096 15.7535 80.216C19.9775 77.336 25.9295 75.896 33.6095 75.896H40.8095V72.632C40.8095 69.432 39.8495 67.096 37.9295 65.624C36.0095 64.152 33.2255 63.416 29.5775 63.416C27.7855 63.416 25.7055 63.64 23.3375 64.088C20.9695 64.536 18.5695 65.176 16.1375 66.008L13.4495 58.424C19.5295 56.12 25.4495 54.968 31.2095 54.968C37.9295 54.968 42.9855 56.44 46.3775 59.384C49.7695 62.328 51.4655 66.52 51.4655 71.96V94.616ZM29.3855 100.376C31.6255 100.376 33.7695 99.8 35.8175 98.648C37.9295 97.496 39.5935 95.896 40.8095 93.848V82.616H34.8575C29.9935 82.616 26.4415 83.448 24.2015 85.112C21.9615 86.712 20.8415 89.048 20.8415 92.12C20.8415 94.808 21.5455 96.856 22.9535 98.264C24.4255 99.672 26.5695 100.376 29.3855 100.376Z" fill="#34D399"/>
<path d="M67.46 65.528C67.46 63.16 68.292 61.144 69.956 59.48C71.62 57.752 73.636 56.888 76.004 56.888C78.436 56.888 80.484 57.752 82.148 59.48C83.812 61.144 84.644 63.16 84.644 65.528C84.644 67.896 83.812 69.944 82.148 71.672C80.484 73.336 78.436 74.168 76.004 74.168C73.636 74.168 71.62 73.336 69.956 71.672C68.292 69.944 67.46 67.896 67.46 65.528ZM67.46 99.608C67.46 97.24 68.292 95.224 69.956 93.56C71.62 91.896 73.636 91.064 76.004 91.064C78.5 91.064 80.548 91.896 82.148 93.56C83.812 95.224 84.644 97.24 84.644 99.608C84.644 102.04 83.812 104.088 82.148 105.752C80.548 107.416 78.5 108.248 76.004 108.248C73.636 108.248 71.62 107.416 69.956 105.752C68.292 104.088 67.46 102.04 67.46 99.608Z" fill="#FB7185"/>
<g filter="url(#filter1_f_1278_107)">
<path d="M139.827 104.024C135.027 107.096 129.459 108.632 123.123 108.632C116.595 108.632 111.667 106.968 108.339 103.64C105.075 100.312 103.443 95.64 103.443 89.624V66.488H92.7868V56.024H103.443V44.984L118.611 43.16V56.024H135.027L133.491 66.488H118.611V89.624C118.611 92.12 119.187 93.912 120.339 95C121.491 96.088 123.347 96.632 125.907 96.632C129.107 96.632 132.083 95.864 134.835 94.328L139.827 104.024Z" fill="#60A5FA"/>
</g>
<path d="M139.827 104.024C135.027 107.096 129.459 108.632 123.123 108.632C116.595 108.632 111.667 106.968 108.339 103.64C105.075 100.312 103.443 95.64 103.443 89.624V66.488H92.7868V56.024H103.443V44.984L118.611 43.16V56.024H135.027L133.491 66.488H118.611V89.624C118.611 92.12 119.187 93.912 120.339 95C121.491 96.088 123.347 96.632 125.907 96.632C129.107 96.632 132.083 95.864 134.835 94.328L139.827 104.024Z" fill="#60A5FA"/>
</g>
<defs>
<filter id="filter0_f_1278_107" x="-0.486572" y="44.968" width="95.1306" height="73.28" filterUnits="userSpaceOnUse" color-interpolation-filters="sRGB">
<feFlood flood-opacity="0" result="BackgroundImageFix"/>
<feBlend mode="normal" in="SourceGraphic" in2="BackgroundImageFix" result="shape"/>
<feGaussianBlur stdDeviation="5" result="effect1_foregroundBlur_1278_107"/>
</filter>
<filter id="filter1_f_1278_107" x="82.7869" y="33.1599" width="67.0398" height="85.4722" filterUnits="userSpaceOnUse" color-interpolation-filters="sRGB">
<feFlood flood-opacity="0" result="BackgroundImageFix"/>
<feBlend mode="normal" in="SourceGraphic" in2="BackgroundImageFix" result="shape"/>
<feGaussianBlur stdDeviation="5" result="effect1_foregroundBlur_1278_107"/>
</filter>
</defs>
</svg>
